<svg width="20" height="20" viewBox="0 0 20 20" fill="none" xmlns="http://www.w3.org/2000/svg">
<path d="M10 2C5.584 2 2 5.584 2 10C2 14.416 5.584 18 10 18C14.416 18 18 14.416 18 10C18 5.584 14.416 2 10 2ZM11.128 14.872V15.336C11.128 15.92 10.648 16.4 10.064 16.4H10.056C9.472 16.4 8.992 15.92 8.992 15.336V14.856C7.928 14.632 6.984 14.048 6.584 13.064C6.4 12.624 6.744 12.136 7.224 12.136H7.416C7.712 12.136 7.952 12.336 8.064 12.616C8.296 13.216 8.904 13.632 10.072 13.632C11.64 13.632 11.992 12.848 11.992 12.36C11.992 11.696 11.64 11.072 9.856 10.648C7.872 10.168 6.512 9.352 6.512 7.712C6.512 6.336 7.624 5.44 9 5.144V4.664C9 4.08 9.48 3.6 10.064 3.6H10.072C10.656 3.6 11.136 4.08 11.136 4.664V5.16C12.24 5.432 12.936 6.12 13.24 6.968C13.4 7.408 13.064 7.872 12.592 7.872H12.384C12.088 7.872 11.848 7.664 11.768 7.376C11.584 6.768 11.08 6.376 10.072 6.376C8.872 6.376 8.152 6.92 8.152 7.688C8.152 8.36 8.672 8.8 10.288 9.216C11.904 9.632 13.632 10.328 13.632 12.344C13.616 13.808 12.52 14.608 11.128 14.872Z" fill="white"/>
</svg>
