<svg width="14" height="14" viewBox="0 0 14 14" fill="none" xmlns="http://www.w3.org/2000/svg">
<path fill-rule="evenodd" clip-rule="evenodd" d="M7 1.29539e-06C3.13401 9.57413e-07 2.85728e-06 3.13401 2.51931e-06 7C2.18133e-06 10.866 3.13401 14 7 14C10.866 14 14 10.866 14 7C14 3.13401 10.866 1.63337e-06 7 1.29539e-06ZM7 1.27273C3.83692 1.27273 1.27273 3.83691 1.27273 7C1.27273 10.1631 3.83692 12.7273 7 12.7273C10.1631 12.7273 12.7273 10.1631 12.7273 7C12.7273 3.83692 10.1631 1.27273 7 1.27273ZM7.79546 7.15839C7.79546 7.59809 7.43842 7.95455 7 7.95455C6.56068 7.95455 6.20455 7.59971 6.20455 7.15839L6.20455 3.97798C6.20455 3.53827 6.56158 3.18182 7 3.18182C7.43932 3.18182 7.79546 3.53665 7.79546 3.97798L7.79546 7.15839ZM7.95455 9.86364C7.95455 10.3908 7.52611 10.8182 7 10.8182C6.47282 10.8182 6.04546 10.3897 6.04546 9.86364C6.04546 9.33646 6.47389 8.90909 7 8.90909C7.52718 8.90909 7.95455 9.33753 7.95455 9.86364Z" fill="#FF5A60"/>
</svg>
