<svg width="37" height="37" viewBox="0 0 37 37" fill="none" xmlns="http://www.w3.org/2000/svg">
<g clip-path="url(#clip0_203_8)">
<path fill-rule="evenodd" clip-rule="evenodd" d="M36.38 18.19C36.26 24.72 35.7 29.93 32.76 32.76C29.82 35.59 24.76 36.26 18.19 36.38C11.66 36.26 6.45 35.7 3.62 32.76C0.79 29.82 0.12 24.76 0 18.19C0.12 11.66 0.68 6.45 3.62 3.62C6.56 0.79 11.62 0.12 18.19 0C24.72 0.12 29.93 0.68 32.76 3.62C35.59 6.56 36.26 11.66 36.38 18.19Z" fill="white"/>
<path d="M13.1899 17.3198V21.5698C13.1886 21.7128 13.2181 21.8544 13.2763 21.9851C13.3345 22.1158 13.42 22.2324 13.5271 22.3272C13.6342 22.422 13.7604 22.4927 13.8972 22.5345C14.0339 22.5764 14.1781 22.5884 14.3199 22.5698C14.5656 22.5426 14.7925 22.4254 14.9569 22.2407C15.1212 22.056 15.2114 21.817 15.2099 21.5698V15.5698C15.2099 15.1614 15.0476 14.7697 14.7588 14.4809C14.47 14.1921 14.0783 14.0298 13.6699 14.0298V14.0298C13.3597 14.0329 13.0578 14.1302 12.8042 14.3088C12.5506 14.4874 12.3573 14.7389 12.2499 15.0298L10.4699 19.5098C10.4605 19.5143 10.4502 19.5166 10.4399 19.5166C10.4295 19.5166 10.4192 19.5143 10.4099 19.5098C10.3992 19.516 10.3872 19.5192 10.3749 19.5192C10.3626 19.5192 10.3505 19.516 10.3399 19.5098L8.55986 15.0298C8.45243 14.7389 8.2591 14.4874 8.00551 14.3088C7.75191 14.1302 7.45002 14.0329 7.13986 14.0298V14.0298C6.73822 14.027 6.35137 14.1812 6.06181 14.4596C5.77225 14.7379 5.60289 15.1184 5.58986 15.5198V21.5198C5.58836 21.767 5.67849 22.006 5.84285 22.1907C6.0072 22.3754 6.23414 22.4926 6.47986 22.5198C6.62167 22.5384 6.76581 22.5264 6.90257 22.4845C7.03932 22.4427 7.16551 22.372 7.27262 22.2772C7.37972 22.1824 7.46524 22.0658 7.52342 21.9351C7.5816 21.8044 7.61108 21.6628 7.60986 21.5198V17.2198L9.47986 21.9498C9.56713 22.1259 9.70079 22.2748 9.86643 22.3805C10.0321 22.4863 10.2234 22.5448 10.4199 22.5498C10.6367 22.5619 10.8515 22.503 11.032 22.3821C11.2124 22.2613 11.3485 22.0849 11.4199 21.8798L13.1899 17.3198Z" fill="#CF2228"/>
<path d="M30.4096 15.3999C30.1517 14.9709 29.7771 14.6241 29.3296 14.3999C28.8127 14.1377 28.2391 14.0071 27.6596 14.0199H25.3996C25.0548 14.0199 24.7242 14.1569 24.4804 14.4007C24.2366 14.6445 24.0996 14.9751 24.0996 15.3199V21.5799C24.0996 21.8451 24.205 22.0995 24.3925 22.287C24.58 22.4745 24.8344 22.5799 25.0996 22.5799C25.3648 22.5799 25.6192 22.4745 25.8067 22.287C25.9943 22.0995 26.0996 21.8451 26.0996 21.5799V19.9099H27.5896C28.1799 19.9251 28.7656 19.8018 29.2996 19.5499C29.7575 19.3294 30.1427 18.9824 30.4096 18.5499C30.6694 18.0752 30.8004 17.5409 30.7896 16.9999C30.8113 16.4419 30.6799 15.8886 30.4096 15.3999V15.3999ZM28.4796 17.6499C28.3688 17.851 28.1973 18.012 27.9896 18.1099C27.7463 18.2253 27.4787 18.2802 27.2096 18.2699H26.1896V15.6599H27.1896C27.4587 15.6496 27.7263 15.7045 27.9696 15.8199C28.1795 15.9096 28.3524 16.0684 28.4596 16.2699C28.5734 16.4816 28.6286 16.7198 28.6196 16.9599C28.632 17.198 28.5839 17.4354 28.4796 17.6499V17.6499Z" fill="#CF2228"/>
<path d="M21.9302 20.6598H19.5702L20.3602 19.9698C20.8853 19.5308 21.3798 19.0564 21.8402 18.5498C22.1396 18.2294 22.383 17.861 22.5602 17.4598C22.6897 17.1422 22.7576 16.8028 22.7602 16.4598C22.7732 15.9601 22.6337 15.4683 22.3602 15.0498C22.0692 14.6324 21.6625 14.3091 21.1902 14.1198C20.6423 13.8797 20.0481 13.7636 19.4502 13.7798C18.8632 13.7658 18.2811 13.8891 17.7502 14.1398C17.2879 14.3577 16.8988 14.7051 16.6302 15.1398C16.5853 15.2052 16.5484 15.2757 16.5202 15.3498C16.5148 15.3661 16.5148 15.3836 16.5202 15.3998C16.5202 15.3998 16.5202 15.3998 16.5202 15.3998C16.5202 15.3998 16.5202 15.4598 16.5202 15.4898C16.5202 15.4898 16.5202 15.5498 16.5202 15.5798V15.6998C16.5202 15.9836 16.6329 16.2558 16.8336 16.4564C17.0342 16.6571 17.3064 16.7698 17.5902 16.7698C17.8078 16.7726 18.0209 16.7078 18.2001 16.5841C18.3792 16.4605 18.5155 16.2843 18.5902 16.0798V16.0798V16.0198C18.677 15.8622 18.8049 15.7309 18.9602 15.6398C19.1325 15.5489 19.3254 15.5041 19.5202 15.5098C19.7117 15.504 19.9014 15.5489 20.0702 15.6398C20.2304 15.7185 20.3629 15.844 20.4502 15.9998C20.5466 16.1776 20.5949 16.3776 20.5902 16.5798C20.5921 16.7699 20.5511 16.9579 20.4702 17.1298C20.38 17.3081 20.2656 17.473 20.1302 17.6198C19.9802 17.7698 19.8002 17.9398 19.5902 18.1198L16.7902 20.5598C16.6724 20.6618 16.5776 20.7876 16.5121 20.929C16.4465 21.0704 16.4118 21.224 16.4102 21.3798V21.4998C16.4102 21.7862 16.5239 22.061 16.7265 22.2635C16.929 22.466 17.2037 22.5798 17.4902 22.5798H21.9302C22.0792 22.6233 22.2363 22.6315 22.389 22.6037C22.5418 22.5759 22.686 22.513 22.8102 22.4198C22.9344 22.3267 23.0352 22.2059 23.1046 22.067C23.174 21.9282 23.2102 21.7751 23.2102 21.6198C23.2102 21.4646 23.174 21.3115 23.1046 21.1726C23.0352 21.0337 22.9344 20.913 22.8102 20.8198C22.686 20.7267 22.5418 20.6637 22.389 20.6359C22.2363 20.6082 22.0792 20.6163 21.9302 20.6598V20.6598Z" fill="#CF2228"/>
</g>
<defs>
<clipPath id="clip0_203_8">
<rect width="36.39" height="36.39" fill="white"/>
</clipPath>
</defs>
</svg>
