<svg width="52" height="52" viewBox="0 0 52 52" fill="none" xmlns="http://www.w3.org/2000/svg">
<g clip-path="url(#clip0_602_2)">
<path d="M51.3528 0.914234C51.0578 0.609234 50.6028 0.524234 50.2178 0.701234L0.582798 23.4812C0.183798 23.6652 -0.049202 24.0862 0.00879797 24.5222C0.066798 24.9582 0.401798 25.3042 0.834798 25.3762L23.0978 29.1072L25.6428 50.1452C25.6968 50.5832 26.0318 50.9362 26.4668 51.0102C26.5238 51.0202 26.5798 51.0252 26.6358 51.0252C27.0108 51.0252 27.3618 50.8142 27.5318 50.4692L51.5318 2.05423C51.7198 1.67523 51.6478 1.21823 51.3528 0.914234ZM27.2258 46.5822L24.9938 28.1252C24.9398 27.6852 24.6028 27.3322 24.1658 27.2592L4.3738 23.9412L48.4848 3.69723L27.2258 46.5822Z" fill="white"/>
</g>
<defs>
<clipPath id="clip0_602_2">
<rect width="51.636" height="51.636" fill="white"/>
</clipPath>
</defs>
</svg>
