<svg width="35" height="35" viewBox="0 0 35 35" fill="none" xmlns="http://www.w3.org/2000/svg">
<path d="M21.8104 34.7502H21.5004C20.645 34.694 19.8337 34.3503 19.1983 33.7748C18.5629 33.1993 18.1407 32.4259 18.0004 31.5802L16.0004 20.1202C15.9541 19.8399 15.8212 19.5812 15.6203 19.3803C15.4194 19.1794 15.1607 19.0465 14.8804 19.0002L3.42043 17.0002C2.5804 16.8519 1.81366 16.4281 1.24119 15.7957C0.668732 15.1633 0.323137 14.3582 0.25894 13.5076C0.194744 12.657 0.4156 11.8093 0.886662 11.0981C1.35772 10.3869 2.05217 9.85287 2.86043 9.58016L29.6604 0.460164C30.3406 0.226259 31.0729 0.18811 31.7737 0.350061C32.4745 0.512012 33.1158 0.867552 33.6244 1.37618C34.133 1.8848 34.4886 2.52606 34.6505 3.22689C34.8125 3.92772 34.7743 4.65995 34.5404 5.34016L25.4304 32.1402C25.1808 32.9022 24.6958 33.5655 24.0453 34.0345C23.3948 34.5035 22.6123 34.754 21.8104 34.7502V34.7502ZM30.4704 2.83016L3.66043 11.9402C3.37804 12.0355 3.13548 12.2222 2.97112 12.4708C2.80677 12.7195 2.72999 13.0158 2.75294 13.313C2.77588 13.6101 2.89724 13.8911 3.09782 14.1116C3.2984 14.332 3.56675 14.4793 3.86043 14.5302L15.3204 16.5302C16.0944 16.6689 16.8073 17.0414 17.3632 17.5974C17.9192 18.1533 18.2916 18.8662 18.4304 19.6402L20.4304 31.1002C20.4813 31.3938 20.6285 31.6622 20.849 31.8628C21.0694 32.0633 21.3505 32.1847 21.6476 32.2077C21.9448 32.2306 22.2411 32.1538 22.4897 31.9895C22.7384 31.8251 22.9251 31.5826 23.0204 31.3002L32.1704 4.53016C32.251 4.29327 32.2636 4.03856 32.2068 3.79487C32.15 3.55118 32.0262 3.32825 31.8493 3.15133C31.6723 2.9744 31.4494 2.85055 31.2057 2.79379C30.962 2.73703 30.7073 2.74963 30.4704 2.83016V2.83016Z" fill="white"/>
</svg>
